<?xml version="1.0" encoding="UTF-8"?>
<svg width="1200" height="630" viewBox="0 0 1200 630" role="img" xmlns="http://www.w3.org/2000/svg">
<title>Vansh Pandit — portfolio preview</title>
<desc>Dark contour-field card reading Vansh Pandit, research portfolio, finding structure in the signal, computer vision, medical imaging, mathematics.</desc>
<style>
@import url('https://fonts.googleapis.com/css2?family=Newsreader:ital,wght@0,600;1,500&amp;family=IBM+Plex+Mono:wght@400;500&amp;display=swap');
.serif{font-family:'Newsreader',Georgia,serif;font-weight:600;fill:#eef4f5}
.serifit{font-family:'Newsreader',Georgia,serif;font-style:italic;font-weight:500;fill:#ccd7da}
.mono{font-family:'IBM Plex Mono',ui-monospace,monospace}
</style>

<rect x="0" y="0" width="1200" height="630" fill="#070b10"/>

<path d="M80 130 C 300 102 520 150 740 122 C 940 96 1040 148 1120 124" fill="none" stroke="#56e0cf" stroke-width="1.4" stroke-linecap="round" opacity="0.06"/>
<path d="M80 155 C 300 127 520 175 740 147 C 940 121 1040 173 1120 149" fill="none" stroke="#56e0cf" stroke-width="1.4" stroke-linecap="round" opacity="0.08"/>
<path d="M80 180 C 300 152 520 200 740 172 C 940 146 1040 198 1120 174" fill="none" stroke="#56e0cf" stroke-width="1.4" stroke-linecap="round" opacity="0.11"/>
<path d="M80 205 C 300 177 520 225 740 197 C 940 171 1040 223 1120 199" fill="none" stroke="#56e0cf" stroke-width="1.4" stroke-linecap="round" opacity="0.16"/>
<path d="M80 230 C 300 202 520 250 740 222 C 940 196 1040 248 1120 224" fill="none" stroke="#f0a84f" stroke-width="1.4" stroke-linecap="round" opacity="0.22"/>
<path d="M80 255 C 300 227 520 275 740 247 C 940 221 1040 273 1120 249" fill="none" stroke="#56e0cf" stroke-width="1.4" stroke-linecap="round" opacity="0.30"/>
<path d="M80 280 C 300 252 520 300 740 272 C 940 246 1040 298 1120 274" fill="none" stroke="#56e0cf" stroke-width="1.4" stroke-linecap="round" opacity="0.42"/>
<path d="M80 305 C 300 277 520 325 740 297 C 940 271 1040 323 1120 299" fill="none" stroke="#56e0cf" stroke-width="1.5" stroke-linecap="round" opacity="0.50"/>
<path d="M80 330 C 300 302 520 350 740 322 C 940 296 1040 348 1120 324" fill="none" stroke="#56e0cf" stroke-width="1.5" stroke-linecap="round" opacity="0.50"/>
<path d="M80 355 C 300 327 520 375 740 347 C 940 321 1040 373 1120 349" fill="none" stroke="#56e0cf" stroke-width="1.4" stroke-linecap="round" opacity="0.42"/>
<path d="M80 380 C 300 352 520 400 740 372 C 940 346 1040 398 1120 374" fill="none" stroke="#56e0cf" stroke-width="1.4" stroke-linecap="round" opacity="0.30"/>
<path d="M80 405 C 300 377 520 425 740 397 C 940 371 1040 423 1120 399" fill="none" stroke="#f0a84f" stroke-width="1.4" stroke-linecap="round" opacity="0.22"/>
<path d="M80 430 C 300 402 520 450 740 422 C 940 396 1040 448 1120 424" fill="none" stroke="#56e0cf" stroke-width="1.4" stroke-linecap="round" opacity="0.16"/>
<path d="M80 455 C 300 427 520 475 740 447 C 940 421 1040 473 1120 449" fill="none" stroke="#56e0cf" stroke-width="1.4" stroke-linecap="round" opacity="0.11"/>
<path d="M80 480 C 300 452 520 500 740 472 C 940 446 1040 498 1120 474" fill="none" stroke="#56e0cf" stroke-width="1.4" stroke-linecap="round" opacity="0.08"/>
<path d="M80 505 C 300 477 520 525 740 497 C 940 471 1040 523 1120 499" fill="none" stroke="#56e0cf" stroke-width="1.4" stroke-linecap="round" opacity="0.06"/>

<circle cx="1015" cy="212" r="66" fill="#56e0cf" opacity="0.04"/>
<circle cx="1015" cy="212" r="66" fill="none" stroke="#56e0cf" stroke-width="1.2" opacity="0.32"/>
<circle cx="1015" cy="212" r="42" fill="none" stroke="#56e0cf" stroke-width="1.2" stroke-dasharray="3 6" opacity="0.28"/>
<line x1="1015" y1="134" x2="1015" y2="182" stroke="#56e0cf" stroke-width="1.2" opacity="0.3"/>
<line x1="1015" y1="242" x2="1015" y2="290" stroke="#56e0cf" stroke-width="1.2" opacity="0.3"/>
<line x1="937" y1="212" x2="985" y2="212" stroke="#56e0cf" stroke-width="1.2" opacity="0.3"/>
<line x1="1045" y1="212" x2="1093" y2="212" stroke="#56e0cf" stroke-width="1.2" opacity="0.3"/>
<circle cx="1015" cy="212" r="3.5" fill="#f0a84f"/>

<path d="M60 82 L60 60 L86 60" fill="none" stroke="#56e0cf" stroke-width="1.6" opacity="0.5"/>
<path d="M1114 60 L1140 60 L1140 82" fill="none" stroke="#56e0cf" stroke-width="1.6" opacity="0.5"/>
<path d="M60 548 L60 570 L86 570" fill="none" stroke="#56e0cf" stroke-width="1.6" opacity="0.5"/>
<path d="M1114 570 L1140 570 L1140 548" fill="none" stroke="#56e0cf" stroke-width="1.6" opacity="0.5"/>

<text class="mono" x="92" y="252" font-size="24" letter-spacing="6" fill="#56e0cf">RESEARCH PORTFOLIO</text>
<text class="serif" x="88" y="350" font-size="96" letter-spacing="-1">Vansh Pandit</text>
<text class="serifit" x="92" y="412" font-size="40">Finding structure in the signal.</text>
<text class="mono" x="94" y="462" font-size="22" letter-spacing="3" fill="#7c939b">COMPUTER VISION · MEDICAL IMAGING · MATHEMATICS</text>

<text class="mono" x="1140" y="590" font-size="16" letter-spacing="1.5" text-anchor="end" fill="#46606a">signal, extracted</text>
</svg>
